<?xml version="1.0" encoding="utf-8"?>
<!-- Generator: Adobe Illustrator 16.0.0, SVG Export Plug-In . SVG Version: 6.00 Build 0)  -->
<!DOCTYPE svg PUBLIC "-//W3C//DTD SVG 1.1//EN" "http://www.w3.org/Graphics/SVG/1.1/DTD/svg11.dtd">
<svg version="1.1" id="Layer_1" xmlns="http://www.w3.org/2000/svg" xmlns:xlink="http://www.w3.org/1999/xlink" x="0px" y="0px"
	 width="48px" height="48px" viewBox="0 0 48 48" enable-background="new 0 0 48 48" xml:space="preserve">
<path fill="#FFFFFF" d="M9,42c-0.8,0-1.5-0.3-2.1-0.9C6.3,40.5,6,39.8,6,39V9c0-0.8,0.3-1.5,0.9-2.1S8.2,6,9,6h13.95v3H9v30h30
	V25.05h3V39c0,0.8-0.3,1.5-0.9,2.1C40.5,41.7,39.8,42,39,42H9z M19.1,31.05L17,28.9L36.9,9H25.95V6H42v16.05h-3v-10.9L19.1,31.05z"
	/>
</svg>
